/* XPM */
/* (c) 2009 Sun Microsystems, Inc. All rights reserved. Use is subject to license terms. */
static char * toolbar_ar_xpm[] = {
"64 64 5 1",
" 	c #080803",
".	c #FF0000",
"+	c #80827F",
"@	c #BFC1BE",
"#	s mask c None",
"################################################################",
"################################################################",
"################################+ +#############################",
"###############################@+++@############################",
"###############################@+++@############################",
"###############################@+++@############################",
"###############################@+++@############################",
"###############################@+++@############################",
"#################@+@#########@@+ + +@@#########@+@##############",
"#################  ++#####@@++       +@@@#####++  ##############",
"################# ++++###@+++++++ ++++++++###@+++ ##############",
"#################++++.@#+++++++++ +++++++++@@+++++##############",
"##################++++ +++++++++   ++ +++++  ++++###############",
"###################+++ ++++  @#@ + @#@+ ++++ +++################",
"####################@ +++++@###@+++@###@+++++ +#################",
"####################+++++ +####@+++@####@++++++#################",
"###################+++++ + @###@+++@###@ + +++++################",
"##################@++++ +++++##@+++@##++++++++++@###############",
"##################@+++ @@+++++@@+++@@+++++@@ ++++###############",
"##################++++ ##+++++       +++++##+++++@##############",
"#################@++++@###+++++++++++++++###@ ++ @##############",
"#################@ +++#####+++++. .+++++#####+++ @##############",
"#################@ +++###@@@ ++.....++ @@@###+++++##############",
"############+   +++++++     ++.......+      ++ ++     +@########",
"########### +++++ ++  ++++++++.......+++++++++ ++ +++++ ########",
"########### ++++++++ +++++++++.......+++++++++ ++ +++++ ########",
"###########@+++++++++ ++++++ +.......+ +++++++.++.+++++@########",
"#############@@@#@ +++####@+ ++.....++ +@###@+++++#@@@##########",
"#################@ ++ ####+++++++++++ +++#### ++ @##############",
"#################@+++++##+++++ +++++ +++++##@ ++.@##############",
"##################++++ #@+++++@+   +@+++++@#+++++@##############",
"##################@++++++++++##@+++@##++++++ ++++###############",
"###################++++  + @###@+++@###+ +  ++++################",
"###################@++++++@####@+++@####@+++++.@################",
"####################++++++@####@+++@####@++++++@################",
"###############+           +###@ +              ++##############",
"###############           ++ +@@ +                 @############",
"##############@           ++++ +                    ############",
"##############+            +++++++                  +###########",
"##############               +++++                   ###########",
"##############             @+++          ####+       ###########",
"#############+      +      +###@++       #####       ###########",
"#############+      #      +###@++       ###@+       ###########",
"############@       #+      ###@++                  +###########",
"############@      +#+      @##@++                  @###########",
"############+      @##      +##@++                 @############",
"############       ###       ###+                +@#############",
"###########@       ###+      @####               +##############",
"###########+                 +####       #@+       #############",
"###########                   ####       ###       +############",
"###########                   ####       ###+       @###########",
"##########+                   @###       ####       +###########",
"##########+                   +###       ####+       ###########",
"##########       @#####@       ###       ####@       +##########",
"#########@       #######       @##       #####+       ##########",
"#########+       #######+      +##       #####@       @#########",
"#########       +#######+       ##       ######        #########",
"################################################################",
"################################################################",
"################################################################",
"################################################################",
"################################################################",
"################################################################",
"################################################################"};
