/* XPM */
/* (c) 2009 Sun Microsystems, Inc. All rights reserved. Use is subject to license terms. */
static char * ar_xpm[] = {
"16 16 30 1",
" 	c none",
".	c #80827F",
"+	c #616360",
"@	c #A8AAA7",
"#	c #949693",
"$	c #424440",
"%	c #565855",
"&	c #9B9D9A",
"*	c #2D2F2B",
"=	c #DF2020",
"-	c #B22824",
";	c #030501",
">	c #757774",
",	c #4E4842",
"'	c #474946",
")	c #612320",
"!	c #342A24",
"~	c #68625D",
"{	c #6A6C68",
"]	c #222420",
"^	c #3B3732",
"/	c #7A7671",
"(	c #1C1812",
"_	c #565854",
":	c #363834",
"<	c #B5B7B4",
"[	c #ADA7A2",
"}	c #717370",
"|	c #736963",
"1	c #9B918B",
"                ",
"                ",
"                ",
"       ..       ",
"    +@#$$@@+    ",
"    .+%$$&+.    ",
"    #%.**..#    ",
"   $+$%=-*$$;   ",
"   &$.>==>.+&   ",
"   ;$,.%$$')!   ",
"  ~;;;{$];;;;]  ",
"  ^;;;^$];*/;;  ",
" @;(~;_.];;;;_  ",
" {;:';;<*;:]([  ",
" (;;;;;~;;;};^  ",
"|;^  $;^;;; ];1 "};
