/* XPM */
/* (c) 2009 Sun Microsystems, Inc. All rights reserved. Use is subject to license terms. */
static char * branch_open[] = {
"16 16 4 1",
" 	c white",
".	c black",
"X	c yellow3",
"o	c yellow",
"                ",
"                ",
"                ",
"   .............",
"  .XXXXXXXXXXXX.",
" .XXXXXXXXXXXXX.",
".............XX.",
".ooooooooooo.XX.",
".oooooooooooo.X.",
".oooooooooooo.X.",
".ooooooooooooo..",
" ..oooooooooo.. ",
"  ............  ",
"   ..........   ",
"                ",
"                "};
