/* XPM */
/* (c) 2009 Sun Microsystems, Inc. All rights reserved. Use is subject to license terms. */
static char * host2_xpm[] = {
"16 16 4 1",
" 	c gray",
".	c blue",
"X	c seagreen",
"o	c black",
"                ",
"                ",
"    .........   ",
"    .XXXXXXX..  ",
"    .XXXXXXX... ",
"    .XXXXXXX... ",
"    .XXXXXXX... ",
"    .XXXXXXX..  ",
"    .........   ",
"  oooooooooo    ",
" o o o o oo     ",
"oooooooooo      ",
"                ",
"                ",
"                ",
"                "};
