/* XPM */
/* (c) 2009 Sun Microsystems, Inc. All rights reserved. Use is subject to license terms. */
static char * int2_xpm[] = {
"16 16 4 1",
" 	c gray",
".	c red",
"X	c black",
"o	c blue",
"                ",
"   .            ",
"  ..   XX       ",
" . .  X  X      ",
"   .     X      ",
"   .    X   oo  ",
"   .   X   o  o ",
"      XXXX    o ",
"             o  ",
"              o ",
"           o  o ",
"            oo  ",
"                ",
"                ",
"                ",
"                "};
