/* XPM */
/* (c) 2009 Sun Microsystems, Inc. All rights reserved. Use is subject to license terms. */
static char * leaf_open[] = {
"16 16 2 1",
" 	c white",
".	c black",
"                ",
"                ",
"                ",
"   ........     ",
"   .      .     ",
"   ........     ",
"   .      .     ",
"   ........     ",
"   .      .     ",
"   ........     ",
"   .      .     ",
"   ........     ",
"                ",
"                ",
"                ",
"                "};
