/* XPM */
/* (c) 2009 Sun Microsystems, Inc. All rights reserved. Use is subject to license terms. */
static char *mini-leftarrow[] = {
/* width height num_colors chars_per_pixel */
"    17     9        4            1",
/* colors */
". c #b2c0dc",
"# c #ff0000",
"a c #ee0000",
"b c #cd0000",
/* pixels */
".................",
"....#............",
"...##aaaaaaaa.b.b",
"..###aaaaaaaa.b.b",
".####aaaaaaaa.b.b",
".####aaaaaaaa.b.b",
"..###aaaaaaaa.b.b",
"...##aaaaaaaa.b.b",
"....#............"
};
