/* XPM */
/* (c) 2009 Sun Microsystems, Inc. All rights reserved. Use is subject to license terms. */
static char * lock_xpm [] = {
"42 17 6 1",
" 	s None	m None	c None",
".	s iconGray1	m white	c white",
"X	s iconGray6	m black	c black",
"o	s iconGray4	m white	c gray",
"O	s iconColor1	m black	c black",
"+	s iconGray7	m black	c black",
"                  .....X                  ",
"                 ..ooo..X                 ",
"                ..oXOOo.oX                ",
"                .oXO  O.oO                ",
"                .oO    .oO                ",
"                .oO    .oO                ",
"                .oO    .oO                ",
"              .............O              ",
"              .ooooooooooo+O              ",
"              .oXXXXXXXXXX+O              ",
"              .ooooooooooo+O              ",
"              .oXXXXXXXXXX+O              ",
"              .ooooooooooo+O              ",
"              .oXXXXXXXXXX+O              ",
"              .ooooooooooo+O              ",
"              .OOOOOOOOOOOOO              ",
"                                          "};
