/* XPM */
static char * logo_sge_xpm[] = {
"90 32 2 1",
" 	c #000000",
".	c None",
"..........................................................................................",
"..........................................................................................",
"..........................................................................................",
"..........................................................................................",
"..........................................................................................",
"..........................................................................................",
"..........................................................................................",
"..........................................................................................",
"..........................................................................................",
"..........................................................................................",
"..........................................................................................",
"..........................................................................................",
"..........................................................................................",
"..........................................................................................",
"..........................................................................................",
"..............    .................      .  ....     ...      ......   ......    .........",
".............  ..  ................. ..  .  ...  ...  ..  .........  .  .....  .  ........",
".............  ...... ... .     .... ..  .  ... ..... .. .........     .........  ........",
"..............    ... ..  .   .  ... .. . . ..  .......       ....  .. ........  .........",
"................  ..  ..  .  .. .... .. . . ..  ..    .  .........  ..  ......  ..........",
"............  ...  .  ..  . ... ..............  .... ..  .........  .. ......  ...........",
"............  ..  ..  .  .. ..  ..............  ...  ..  .........  .  .....   ...........",
".............    ...     .  ..  ...............     ...      ......   ... ..     .........",
"..........................................................................................",
"..........................................................................................",
"..........................................................................................",
"..........................................................................................",
"..........................................................................................",
"..........................................................................................",
"..........................................................................................",
"..........................................................................................",
".........................................................................................."};
