/* XPM */
/* (c) 2009 Sun Microsystems, Inc. All rights reserved. Use is subject to license terms. */
static char * mem2_xpm[] = {
"16 16 3 1",
" 	c gray",
".	c black",
"X	c red",
"                ",
"                ",
"                ",
"                ",
"                ",
"       .......  ",
"      ...X.X..  ",
"     ..X..X. .  ",
"    .X..X... .  ",
"   ....... .    ",
"   .  .  . .    ",
"   .  .  .      ",
"                ",
"                ",
"                ",
"                "};
