/* XPM */
/* (c) 2009 Sun Microsystems, Inc. All rights reserved. Use is subject to license terms. */
static char * qsh_off_xpm[] = {
"50 16 6 1",
" 	c None",
".	c #000000",
"+	c #C0C0C0",
"@	c #0000FF",
"#	c #808080",
"$	c #000080",
"                                                  ",
"                                                  ",
"        ....                                      ",
"  .... .    +...                                  ",
"  @@@.    . ++#+ .                                ",
"  @@@.+  . .+.  .                                 ",
"  @@@.#++ .+#              .     .                ",
"  $$$. .##.+     ...       .     .                ",
"                 .  . ..  ... .. ...              ",
"                 ...    .  . .   .  .             ",
"                 .  . ...  . .   .  .             ",
"                 .  . . .  . .   .  .             ",
"                 ...  .. . .  .. .  .             ",
"                                                  ",
"                                                  ",
"                                                  "};
