/* XPM */
/* (c) 2009 Sun Microsystems, Inc. All rights reserved. Use is subject to license terms. */
static char *mini-seconds[] = {
/* width height num_colors chars_per_pixel */
"    16    16        3            1",
/* colors */
". c #b2c0dc",
"# c #000000",
"a c #ff0000",
/* pixels */
"................",
"....#......#.#.#",
"....###..##...#.",
"....#......#.#.#",
"...#.....#..#...",
"..#........#.#..",
"..#.....#....#..",
"................",
".......a........",
"..#..........#..",
"..#......#...#..",
"...#.a......#...",
"....a......#....",
".....##..##.....",
"................",
"................"
};
