/* XPM */
/* (c) 2009 Sun Microsystems, Inc. All rights reserved. Use is subject to license terms. */
static char * str2_xpm[] = {
"16 16 4 1",
" 	c gray",
".	c blue",
"X	c red",
"o	c black",
"                ",
"   ...   X      ",
"      .  X      ",
"   ....  X      ",
"  .   .  XXXX   ",
"  .   .  X   X  ",
"   ....  X   X  ",
"         X   X  ",
"         X   X  ",
"  ooo    XXXX   ",
" o   o          ",
" o              ",
" o              ",
" o   o          ",
"  ooo           ",
"                "};
