/* XPM */
/* (c) 2009 Sun Microsystems, Inc. All rights reserved. Use is subject to license terms. */
static char * time2_xpm[] = {
"16 16 4 1",
" 	c gray",
".	c blue",
"X	c red",
"o	c black",
"                ",
"                ",
"     .XXX.      ",
"    .......     ",
"   ..     ..    ",
"  ..   X   ..   ",
" ..    o    ..  ",
" X.    o    .X  ",
" X.    oooX .X  ",
" X.         .X  ",
" ..         ..  ",
"  ..       ..   ",
"   ..     ..    ",
"    .......     ",
"     .XXX.      ",
"                "};
