/* XPM */
/* (c) 2009 Sun Microsystems, Inc. All rights reserved. Use is subject to license terms. */
static char *mini-calconf[] = {
/* width height num_colors chars_per_pixel */
"    32    32        4            1",
/* colors */
". s mask c None",
"# c #808080",
"a c #000000",
"b c #800000",
/* pixels */
"................................",
"................................",
"................................",
"................................",
"................................",
"................................",
"................................",
"................................",
".............a..#.a...a.........",
".............#.##.a...a.........",
"..............aa#a.a##..........",
".............#.......aa.........",
"............#........aa.........",
"............a........#a.........",
"...........##.......aaa.........",
".........#.a........aa#.........",
"........a.##.........a#.........",
".....#.a..a........aaaa.........",
".........#........a.#aa.........",
".........####....#.a.aa.........",
".........########..#.aa.........",
".........#aaaaaaaaa..aa.........",
"............a..####..aa#........",
"............aa##aaa##a##........",
".....................#..........",
"................................",
"................................",
"................................",
"................................",
"................................",
"................................",
"................................"
};
