/* XPM */
/* (c) 2009 Sun Microsystems, Inc. All rights reserved. Use is subject to license terms. */
static char * toolbar_ar_xpm[] = {
"32 32 6 1",
" 	s mask c None",
".	c #030501",
"+	c #FF0000",
"@	c #665047",
"#	c #80827F",
"$	c #D0D2CF",
"                                ",
"                                ",
"                                ",
"                                ",
"                                ",
"               ##               ",
"               ##               ",
"               ##               ",
"        .#  $#....$$  #.        ",
"        ##$##########$##        ",
"         #.##. .. ###.#         ",
"         ####  ##  $###         ",
"        $##### ## #####$        ",
"        ##. ##....## ###        ",
"        .#   ##+@@#   #.        ",
"     #.####..#++++...#.#..#     ",
"     ####.####++++####.####     ",
"      $ .#  $.#++#.$  ## $      ",
"        ### ##.##.## $#+        ",
"     $.....@## ##........@#     ",
"     @......$  ##..........#    ",
"    $........  .............    ",
"    #.......@#.......##@....    ",
"    @.........###.... ##....    ",
"   $....$....$ #...........#    ",
"   #...@ @...# ##..........$    ",
"  $....$ $....$##........@$     ",
"  $...........$  ....$#...@$    ",
"  @...........@  .... $....#    ",
" $.............$ ....  #...@$   ",
" #...@     ....# ....  $....$   ",
" @...#     #...@ ....   #...@   "};
