/* XPM */
/* (c) 2009 Sun Microsystems, Inc. All rights reserved. Use is subject to license terms. */
static char * unknown2_xpm[] = {
"16 16 4 1",
" 	c gray",
".	c green",
"X	c red",
"o	c blue",
"                ",
"             .. ",
"   XX       .  .",
"  X  X      .  .",
"  X  X        . ",
"    X        .  ",
"   X   oo    .  ",
"   X  o  o   .  ",
"   X  o  o      ",
"        o    .  ",
"   X   o        ",
"       o        ",
"       o        ",
"                ",
"       o        ",
"                "};
