/* XPM */
/* (c) 2009 Sun Microsystems, Inc. All rights reserved. Use is subject to license terms. */
static char * uparrow_xpm[] = {
"9 17 5 1",
" 	c None",
".	c #B2C0DC",
"+	c #FF0000",
"@	c #EE0000",
"#	c #CD0000",
".........",
"...++....",
"..++++...",
".++++++..",
"++++++++.",
".@@@@@@..",
".@@@@@@..",
".@@@@@@..",
".@@@@@@..",
".@@@@@@..",
".@@@@@@..",
".@@@@@@..",
".@@@@@@..",
".........",
".######..",
".........",
".######.."};
